<?xml version="1.0" encoding="UTF-8"?>
<svg version="1.1" xmlns="http://www.w3.org/2000/svg" width="32" height="32">
<path d="M0 0 C1.65 0 3.3 0 5 0 C5 1.98 5 3.96 5 6 C5.99 6 6.98 6 8 6 C8.33 6.66 8.66 7.32 9 8 C9.66 6.35 10.32 4.7 11 3 C11.8971875 3.4640625 11.8971875 3.4640625 12.8125 3.9375 C15.08956772 5.10209704 15.08956772 5.10209704 18 6 C18 8.31 18 10.62 18 13 C16.948125 13.2475 15.89625 13.495 14.8125 13.75 C11.1836655 14.78259518 8.73516712 16.34771673 6 19 C6 19.66 6 20.32 6 21 C9.96 21 13.92 21 18 21 C17.34 23.31 16.68 25.62 16 28 C11.8882744 28.02465746 7.77657722 28.04283959 3.66479492 28.05493164 C2.26504772 28.0599708 0.8653058 28.06680216 -0.53442383 28.07543945 C-2.54245777 28.0875232 -4.55052957 28.09269807 -6.55859375 28.09765625 C-7.76829834 28.10289307 -8.97800293 28.10812988 -10.22436523 28.11352539 C-13 28 -13 28 -14 27 C-14.04063832 25.33382885 -14.042721 23.66611905 -14 22 C-12.68 21.67 -11.36 21.34 -10 21 C-10 20.34 -10 19.68 -10 19 C-9.01 19 -8.02 19 -7 19 C-7 19.66 -7 20.32 -7 21 C-3.37 21 0.26 21 4 21 C4 20.34 4 19.68 4 19 C3.32453125 19.04640625 2.6490625 19.0928125 1.953125 19.140625 C-5.38730853 19.43763676 -5.38730853 19.43763676 -8.625 17.125 C-10 15 -10 15 -10 13 C-11.32 13 -12.64 13 -14 13 C-13 10 -13 10 -11 8.9375 C-10.34 8.628125 -9.68 8.31875 -9 8 C-8.67 7.34 -8.34 6.68 -8 6 C-7.01 6 -6.02 6 -5 6 C-5 5.01 -5 4.02 -5 3 C-3.35 3 -1.7 3 0 3 C0 2.01 0 1.02 0 0 Z M-11 23 C-11.33 23.66 -11.66 24.32 -12 25 C-11.34 25 -10.68 25 -10 25 C-10.33 24.34 -10.66 23.68 -11 23 Z M-5 23 C-5.33 23.66 -5.66 24.32 -6 25 C-5.34 25 -4.68 25 -4 25 C-4.33 24.34 -4.66 23.68 -5 23 Z M1 23 C1 23.66 1 24.32 1 25 C1.99 24.67 2.98 24.34 4 24 C3.01 23.67 2.02 23.34 1 23 Z " fill="#2D6E80" transform="translate(14,2)"/>
<path d="M0 0 C1.32 0 2.64 0 4 0 C4.33 1.32 4.66 2.64 5 4 C3.4221875 4.37125 3.4221875 4.37125 1.8125 4.75 C-1.8163345 5.78259518 -4.26483288 7.34771673 -7 10 C-7 10.66 -7 11.32 -7 12 C-3.04 12 0.92 12 5 12 C4.34 14.31 3.68 16.62 3 19 C-1.1117256 19.02465746 -5.22342278 19.04283959 -9.33520508 19.05493164 C-10.73495228 19.0599708 -12.1346942 19.06680216 -13.53442383 19.07543945 C-15.54245777 19.0875232 -17.55052957 19.09269807 -19.55859375 19.09765625 C-20.76829834 19.10289307 -21.97800293 19.10812988 -23.22436523 19.11352539 C-26 19 -26 19 -27 18 C-27.04063832 16.33382885 -27.042721 14.66611905 -27 13 C-25.68 12.67 -24.36 12.34 -23 12 C-23 11.34 -23 10.68 -23 10 C-22.01 10 -21.02 10 -20 10 C-20 10.66 -20 11.32 -20 12 C-16.37 12 -12.74 12 -9 12 C-9 11.34 -9 10.68 -9 10 C-12.3 10 -15.6 10 -19 10 C-19.33 9.34 -19.66 8.68 -20 8 C-17.03 8.495 -17.03 8.495 -14 9 C-14 8.34 -14 7.68 -14 7 C-4.58997722 2.59225513 -4.58997722 2.59225513 0 2 C0 1.34 0 0.68 0 0 Z M-24 14 C-24.33 14.66 -24.66 15.32 -25 16 C-24.34 16 -23.68 16 -23 16 C-23.33 15.34 -23.66 14.68 -24 14 Z M-18 14 C-18.33 14.66 -18.66 15.32 -19 16 C-18.34 16 -17.68 16 -17 16 C-17.33 15.34 -17.66 14.68 -18 14 Z M-12 14 C-12 14.66 -12 15.32 -12 16 C-11.01 15.67 -10.02 15.34 -9 15 C-9.99 14.67 -10.98 14.34 -12 14 Z " fill="#3A4D55" transform="translate(27,11)"/>
<path d="M0 0 C1.98 0.66 3.96 1.32 6 2 C6 2.66 6 3.32 6 4 C4.68 4 3.36 4 2 4 C2 4.66 2 5.32 2 6 C0.23244474 6.84026396 -1.53917263 7.67198722 -3.3125 8.5 C-4.29863281 8.9640625 -5.28476562 9.428125 -6.30078125 9.90625 C-9 11 -9 11 -12 11 C-12 11.66 -12 12.32 -12 13 C-14.8125 12.8125 -14.8125 12.8125 -18 12 C-19.85233285 9.59196729 -21 8.07258075 -21 5 C-14.07 5 -7.14 5 0 5 C0 3.35 0 1.7 0 0 Z " fill="#1590B4" transform="translate(25,7)"/>
<path d="M0 0 C1.32 0 2.64 0 4 0 C4.33 1.32 4.66 2.64 5 4 C3.3603125 4.4021875 3.3603125 4.4021875 1.6875 4.8125 C-1.89967362 5.63330412 -1.89967362 5.63330412 -3.4375 7.5625 C-5 9 -5 9 -7.26171875 9.29296875 C-8.06222656 9.25816406 -8.86273438 9.22335938 -9.6875 9.1875 C-10.89986328 9.14689453 -10.89986328 9.14689453 -12.13671875 9.10546875 C-12.75160156 9.07066406 -13.36648438 9.03585938 -14 9 C-14 8.34 -14 7.68 -14 7 C-4.58997722 2.59225513 -4.58997722 2.59225513 0 2 C0 1.34 0 0.68 0 0 Z " fill="#107CA0" transform="translate(27,11)"/>
<path d="M0 0 C1.98 0.66 3.96 1.32 6 2 C6 2.66 6 3.32 6 4 C4.68 4 3.36 4 2 4 C2 4.66 2 5.32 2 6 C-5.26 6 -12.52 6 -20 6 C-20 5.67 -20 5.34 -20 5 C-13.4 5 -6.8 5 0 5 C0 3.35 0 1.7 0 0 Z " fill="#22A3CE" transform="translate(25,7)"/>
<path d="M0 0 C2.31 0 4.62 0 7 0 C6.67 0.66 6.34 1.32 6 2 C2.9375 2.625 2.9375 2.625 0 3 C0 3.66 0 4.32 0 5 C-2.97 4.505 -2.97 4.505 -6 4 C-6 3.34 -6 2.68 -6 2 C-4.35 2 -2.7 2 -1 2 C-0.67 1.34 -0.34 0.68 0 0 Z " fill="#41A8C5" transform="translate(13,15)"/>
<path d="M0 0 C1.32 0 2.64 0 4 0 C4.33 1.32 4.66 2.64 5 4 C2.69 4.33 0.38 4.66 -2 5 C-2.33 4.01 -2.66 3.02 -3 2 C-2.01 2 -1.02 2 0 2 C0 1.34 0 0.68 0 0 Z " fill="#35535D" transform="translate(27,11)"/>
<path d="M0 0 C0.12375 0.556875 0.2475 1.11375 0.375 1.6875 C1.05976855 4.22114364 1.99133763 6.57921032 3 9 C2.01 8.34 1.02 7.68 0 7 C0 6.34 0 5.68 0 5 C-1.32 5 -2.64 5 -4 5 C-3 2 -3 2 0 0 Z " fill="#3B4F57" transform="translate(4,10)"/>
</svg>
