<?xml version="1.0" encoding="UTF-8"?>
<svg version="1.1" xmlns="http://www.w3.org/2000/svg" width="32" height="32">
<path d="M0 0 C2.63995097 0.07186799 3.79303107 0.14408192 6.0625 1.5625 C7.0625 3.3125 7.0625 3.3125 7.0625 7.3125 C8.7125 7.3125 10.3625 7.3125 12.0625 7.3125 C13.18506131 9.55762262 13.19663762 10.82706649 13.1875 13.3125 C13.19136719 14.364375 13.19136719 14.364375 13.1953125 15.4375 C13.0625 17.3125 13.0625 17.3125 12.0625 19.3125 C10.4125 19.3125 8.7625 19.3125 7.0625 19.3125 C6.93875 20.281875 6.815 21.25125 6.6875 22.25 C6.378125 23.7659375 6.378125 23.7659375 6.0625 25.3125 C3.83359005 26.42695498 2.53194894 26.47730286 0.0625 26.5 C-0.989375 26.52126953 -0.989375 26.52126953 -2.0625 26.54296875 C-3.9375 26.3125 -3.9375 26.3125 -5.9375 24.3125 C-6.0625 21.6875 -6.0625 21.6875 -5.9375 19.3125 C-7.113125 19.4053125 -7.113125 19.4053125 -8.3125 19.5 C-9.17875 19.438125 -10.045 19.37625 -10.9375 19.3125 C-13.25082486 15.84251271 -13.27707563 14.38740752 -12.9375 10.3125 C-12.2775 9.3225 -11.6175 8.3325 -10.9375 7.3125 C-8.3125 7.125 -8.3125 7.125 -5.9375 7.3125 C-5.97875 6.52875 -6.02 5.745 -6.0625 4.9375 C-5.8479326 0.43158465 -4.32123004 0.34295476 0 0 Z " fill="#F6C53D" transform="translate(15.9375,2.6875)"/>
<path d="M0 0 C2.59556554 0.47799524 3.47135694 1.20426986 4.97265625 3.36328125 C5.08203125 5.58984375 5.08203125 5.58984375 4.72265625 7.98828125 C4.614375 8.78492188 4.50609375 9.5815625 4.39453125 10.40234375 C3.97265625 12.36328125 3.97265625 12.36328125 2.97265625 13.36328125 C1.29081677 13.59615133 -0.39858535 13.77592291 -2.08984375 13.92578125 C-3.00894531 14.00957031 -3.92804687 14.09335937 -4.875 14.1796875 C-5.58527344 14.24027344 -6.29554687 14.30085938 -7.02734375 14.36328125 C-7.35734375 16.01328125 -7.68734375 17.66328125 -8.02734375 19.36328125 C-10.40234375 19.55078125 -10.40234375 19.55078125 -13.02734375 19.36328125 C-15.34066861 15.89329396 -15.36691938 14.43818877 -15.02734375 10.36328125 C-14.36734375 9.37328125 -13.70734375 8.38328125 -13.02734375 7.36328125 C-10.40234375 7.17578125 -10.40234375 7.17578125 -8.02734375 7.36328125 C-8.06859375 6.57953125 -8.10984375 5.79578125 -8.15234375 4.98828125 C-7.89687704 -0.37651963 -4.58543244 0.11142172 0 0 Z " fill="#367DEF" transform="translate(18.02734375,2.63671875)"/>
</svg>
